<svg width="30" height="21" viewBox="0 0 30 21" fill="none" xmlns="http://www.w3.org/2000/svg">
<path id="Icon awesome-youtube" fill-rule="evenodd" clip-rule="evenodd" d="M29.1534 3.31963C28.813 2.03793 27.81 1.02851 26.5366 0.685951C24.2284 0.0634766 14.9729 0.0634766 14.9729 0.0634766C14.9729 0.0634766 5.71742 0.0634766 3.40919 0.685951C2.13576 1.02857 1.13283 2.03793 0.792427 3.31963C0.17395 5.64277 0.17395 10.4898 0.17395 10.4898C0.17395 10.4898 0.17395 15.3368 0.792427 17.66C1.13283 18.9417 2.13576 19.909 3.40919 20.2516C5.71742 20.8741 14.9729 20.8741 14.9729 20.8741C14.9729 20.8741 24.2284 20.8741 26.5366 20.2516C27.81 19.909 28.813 18.9417 29.1534 17.66C29.7718 15.3368 29.7718 10.4898 29.7718 10.4898C29.7718 10.4898 29.7718 5.64277 29.1534 3.31963V3.31963ZM11.9459 14.8903V6.08883L19.6816 10.4897L11.9459 14.8903V14.8903Z" fill="#909090"/>
</svg>
