<svg width="26" height="25" viewBox="0 0 26 25" fill="none" xmlns="http://www.w3.org/2000/svg">
<path id="Icon awesome-instagram" fill-rule="evenodd" clip-rule="evenodd" d="M13.0301 5.93755C9.58325 5.93755 6.80304 8.71771 6.80304 12.1645C6.80304 15.6112 9.58325 18.3914 13.0301 18.3914C16.4769 18.3914 19.2571 15.6112 19.2571 12.1645C19.2571 8.71771 16.4769 5.93755 13.0301 5.93755ZM13.0301 16.2129C10.8027 16.2129 8.98171 14.3974 8.98171 12.1646C8.98171 9.93181 10.7972 8.11631 13.0301 8.11631C15.2629 8.11631 17.0785 9.93181 17.0785 12.1646C17.0785 14.3974 15.2575 16.2129 13.0301 16.2129H13.0301ZM20.9642 5.68295C20.9642 6.49044 20.3139 7.13535 19.5118 7.13535C18.7043 7.13535 18.0594 6.48502 18.0594 5.68295C18.0594 4.88087 18.7097 4.23054 19.5118 4.23054C20.3139 4.23054 20.9642 4.88087 20.9642 5.68295ZM25.0885 7.15702C24.9964 5.21145 24.552 3.48807 23.1267 2.06818C21.7068 0.648294 19.9833 0.203902 18.0377 0.106352C16.0325 -0.00745588 10.0222 -0.00745588 8.01702 0.106352C6.07683 0.198482 4.35342 0.642875 2.92809 2.06276C1.50275 3.48265 1.06377 5.20603 0.966217 7.1516C0.852407 9.15678 0.852407 15.1669 0.966217 17.1721C1.05835 19.1177 1.50275 20.8411 2.92809 22.2609C4.35342 23.6808 6.07141 24.1252 8.01702 24.2228C10.0222 24.3366 16.0325 24.3366 18.0377 24.2228C19.9833 24.1306 21.7068 23.6862 23.1267 22.2609C24.5466 20.8411 24.991 19.1177 25.0885 17.1721C25.2023 15.1669 25.2023 9.1622 25.0885 7.15702H25.0885ZM22.498 19.3233C22.0752 20.3855 21.2569 21.2039 20.1893 21.632C18.5905 22.2661 14.7968 22.1198 13.0301 22.1198C11.2633 22.1198 7.4642 22.2607 5.87086 21.632C4.80863 21.2093 3.99029 20.391 3.56214 19.3233C2.92806 17.7246 3.07439 13.931 3.07439 12.1643C3.07439 10.3976 2.93348 6.59854 3.56214 5.00523C3.98487 3.94302 4.80321 3.12469 5.87086 2.69655C7.46962 2.06248 11.2633 2.20881 13.0301 2.20881C14.7968 2.20881 18.5959 2.0679 20.1893 2.69655C21.2515 3.11927 22.0698 3.9376 22.498 5.00523C23.1321 6.60396 22.9857 10.3976 22.9857 12.1643C22.9857 13.931 23.1321 17.73 22.498 19.3233Z" fill="#909090"/>
</svg>
