<svg width="56" height="56" viewBox="0 0 56 56" fill="none" xmlns="http://www.w3.org/2000/svg">
<g id="Profile">
<circle id="Ellipse 1189" cx="28" cy="28" r="28" fill="#D9D9D9"/>
<path id="Vector" d="M33.1853 33.5309H22.815C17.087 33.5309 12.4446 38.1734 12.4446 43.9013V45.6296C12.4446 45.6296 17.8458 47.358 28.0001 47.358C38.1545 47.358 43.5557 45.6296 43.5557 45.6296V43.9013C43.5557 38.1734 38.9132 33.5309 33.1853 33.5309Z" stroke="#25282C" stroke-width="2" stroke-miterlimit="10" stroke-linecap="square"/>
<path id="Vector_2" d="M19.3581 17.9753C19.3581 13.2032 23.228 9.33331 28.0001 9.33331C32.7722 9.33331 36.642 13.2032 36.642 17.9753C36.642 22.7474 32.7722 28.3457 28.0001 28.3457C23.228 28.3457 19.3581 22.7474 19.3581 17.9753Z" stroke="#25282C" stroke-width="2" stroke-miterlimit="10" stroke-linecap="square"/>
</g>
</svg>
